<svg width="64" height="64" viewBox="0 0 24 24" fill="none" xmlns="http://www.w3.org/2000/svg">
  <path d="M4 2.5C4 1.67157 4.67157 1 5.5 1H13.5L18.5 6V21.5C18.5 22.3284 17.8284 23 17 23H5.5C4.67157 23 4 22.3284 4 21.5V2.5Z" stroke="#0a5c53" stroke-width="1.5"/>
  
  <path d="M13.5 1V5.5C13.5 5.77614 13.7239 6 14 6H18.5" stroke="#0a5c53" stroke-width="1.5" stroke-linejoin="round"/>
  
  <rect x="6.5" y="10" width="11" height="6" rx="1" fill="#0a5c53"/>
  
  <path d="M9 12V14M12 12V14M15 12V14" stroke="white" stroke-width="1" stroke-linecap="round"/>
  
  <path d="M12 18V21M12 21L10 19M12 21L14 19" stroke="#0a5c53" stroke-width="1.2" stroke-linecap="round" stroke-linejoin="round"/>
</svg>